<svg width="172" height="27" viewBox="0 0 172 27" fill="none" xmlns="http://www.w3.org/2000/svg">
<path d="M157.75 15.26C159.155 15.262 160.528 14.8473 161.697 14.0683C162.866 13.2894 163.778 12.1812 164.317 10.884C164.856 9.58683 164.998 8.15895 164.725 6.78102C164.452 5.4031 163.777 4.13707 162.784 3.14311C161.791 2.14916 160.526 1.47196 159.149 1.19719C157.771 0.922423 156.343 1.06244 155.045 1.59953C153.747 2.13662 152.638 3.04663 151.857 4.21444C151.077 5.38224 150.66 6.75535 150.66 8.16002C150.659 9.09194 150.841 10.015 151.197 10.8763C151.553 11.7377 152.075 12.5204 152.733 13.1799C153.392 13.8393 154.174 14.3624 155.034 14.7194C155.895 15.0763 156.818 15.26 157.75 15.26ZM153.68 8.12002C153.341 7.74153 153.158 7.24811 153.17 6.74002C153.175 6.39067 153.264 6.04771 153.43 5.74002C153.591 5.42887 153.828 5.16386 154.12 4.97002C154.338 4.82877 154.578 4.72406 154.83 4.66002C155.159 4.59433 155.494 4.56415 155.83 4.57002H157.83V5.86002C157.916 5.70425 158.016 5.55694 158.13 5.42002C158.373 5.10485 158.684 4.8485 159.04 4.67002C159.387 4.50627 159.767 4.42417 160.15 4.43002C160.67 4.42481 161.177 4.59378 161.59 4.91002C162.039 5.26945 162.385 5.74243 162.59 6.28002L162.64 6.38002H161.83C161.631 6.04066 161.361 5.74753 161.04 5.52002C160.767 5.33198 160.442 5.23408 160.11 5.24002C159.815 5.24424 159.526 5.31799 159.265 5.45528C159.005 5.59256 158.78 5.78949 158.61 6.03002C158.201 6.57811 157.987 7.24655 158 7.93002C157.974 8.64767 158.193 9.35283 158.62 9.93002C158.792 10.1713 159.018 10.3687 159.28 10.5059C159.543 10.6432 159.834 10.7166 160.13 10.72C160.369 10.7176 160.604 10.6668 160.823 10.5705C161.041 10.4742 161.237 10.3346 161.4 10.16C161.771 9.77691 162.021 9.29371 162.12 8.77002H160.12V8.00002H162.92V8.10002C162.889 8.98908 162.565 9.84305 162 10.53C161.768 10.8417 161.466 11.0945 161.119 11.2682C160.772 11.4419 160.388 11.5316 160 11.53C159.611 11.534 159.227 11.4454 158.879 11.2715C158.531 11.0976 158.23 10.8435 158 10.53C157.91 10.41 157.83 10.29 157.75 10.16V11.43H157V5.43002H156C155.665 5.41787 155.33 5.44133 155 5.50002C154.828 5.54508 154.667 5.62696 154.53 5.74002C154.372 5.86756 154.248 6.03255 154.17 6.22002C154.088 6.4093 154.047 6.61379 154.05 6.82002C154.043 6.9897 154.075 7.15873 154.142 7.31455C154.21 7.47036 154.312 7.60895 154.44 7.72002C154.721 7.95285 155.075 8.07706 155.44 8.07002H156.24L156.17 8.18002L154.08 11.39H153.08L153.16 11.27L154.79 8.77002C154.351 8.70117 153.955 8.46898 153.68 8.12002V8.12002ZM170.08 8.06002H167.77C167.77 10.7188 166.714 13.2687 164.834 15.1488C162.954 17.0288 160.404 18.085 157.745 18.085C155.086 18.085 152.536 17.0288 150.656 15.1488C148.776 13.2687 147.72 10.7188 147.72 8.06002V8.06002H145.42C145.42 11.3301 146.719 14.4663 149.031 16.7787C151.344 19.091 154.48 20.39 157.75 20.39C161.02 20.39 164.156 19.091 166.469 16.7787C168.781 14.4663 170.08 11.3301 170.08 8.06002V8.06002Z" fill="#0068B3"/>
<path d="M15 1L0 21.67H2.58L8.3 13.78H16.88V21.68H19V1H15ZM16.91 11.67H9.84L16 3.12H16.87L16.91 11.67Z" fill="#1D1D1B"/>
<path d="M23.77 3.00002V21.65H21.77V1.00002H27.31C28.3177 0.971161 29.3251 1.06519 30.31 1.28002C31.1754 1.48265 31.9843 1.87724 32.6766 2.4346C33.369 2.99196 33.9272 3.69784 34.31 4.50002C34.7854 5.44991 35.0319 6.49783 35.03 7.56002C35.0616 9.06155 34.5583 10.5254 33.61 11.69C33.1782 12.2446 32.6326 12.7003 32.0099 13.0263C31.3872 13.3523 30.7018 13.5411 30 13.58L35 21.65H32.53L26.41 11.7H28.36C29.5305 11.7534 30.6744 11.3397 31.54 10.55C31.9503 10.1691 32.2729 9.70347 32.4853 9.18543C32.6977 8.6674 32.7948 8.10936 32.77 7.55002C32.7833 6.86518 32.6575 6.18477 32.4 5.55002C32.145 4.95454 31.7627 4.42209 31.28 3.99002C30.8635 3.61374 30.3629 3.34283 29.82 3.20002C28.8105 3.02062 27.7843 2.95354 26.76 3.00002H23.77Z" fill="#1D1D1B"/>
<path d="M50 19.18C49.3602 20.0966 48.4866 20.8252 47.47 21.29C46.3998 21.8033 45.2269 22.0666 44.04 22.06C42.9769 22.0891 41.9195 21.8949 40.936 21.4902C39.9525 21.0854 39.0647 20.479 38.33 19.71C37.5707 18.9524 36.9727 18.0487 36.5723 17.0536C36.1718 16.0584 35.9772 14.9925 36 13.92C35.9725 12.838 36.1648 11.7617 36.5653 10.7561C36.9657 9.7506 37.5661 8.83679 38.33 8.07002C39.0897 7.29799 40.0004 6.69085 41.0052 6.28652C42.01 5.88219 43.0874 5.68934 44.17 5.72002C45.3117 5.70517 46.4412 5.95504 47.47 6.45002C48.478 6.9239 49.3486 7.6466 50 8.55002V6.06002H52V21.65H50V19.18ZM50 13.75C50.0055 12.9472 49.8519 12.1512 49.5481 11.408C49.2443 10.6648 48.7963 9.98915 48.23 9.42002C47.7174 8.84313 47.0894 8.38035 46.3865 8.06166C45.6837 7.74297 44.9217 7.57547 44.15 7.57002C43.3481 7.56005 42.5531 7.71971 41.8173 8.03854C41.0814 8.35737 40.4212 8.82815 39.88 9.42002C39.2904 10.0258 38.8268 10.7425 38.5161 11.5286C38.2054 12.3148 38.0538 13.1548 38.07 14C38.0528 14.8141 38.1997 15.6232 38.5021 16.3792C38.8045 17.1352 39.2561 17.8225 39.83 18.4C40.372 18.9733 41.0266 19.4282 41.7529 19.7362C42.4791 20.0443 43.2612 20.1988 44.05 20.19C44.8366 20.1894 45.6139 20.0205 46.3297 19.6945C47.0455 19.3685 47.6833 18.893 48.2 18.3C49.3771 17.0804 50.0242 15.4448 50 13.75Z" fill="#1D1D1B"/>
<path d="M53.3 6.06H55.6L60.42 18.71L65.42 6.06H67.75L59.37 26.69H57.23L59.31 21.62L53.3 6.06Z" fill="#1D1D1B"/>
<path d="M81.43 8.50001C82.0344 7.64405 82.8465 6.95583 83.79 6.50001C84.7704 6.02242 85.8496 5.78261 86.94 5.80001C87.806 5.72294 88.6779 5.85533 89.4819 6.18602C90.286 6.51671 90.9988 7.03598 91.56 7.70001C92.53 8.92001 93 11 93 13.78V21.65H91.1V13.37C91.2411 11.8345 90.8909 10.2938 90.1 8.97001C89.6848 8.50811 89.1677 8.14925 88.5897 7.92187C88.0117 7.69449 87.3887 7.60484 86.77 7.66001C85.954 7.64188 85.1463 7.82748 84.42 8.20001C83.7481 8.56393 83.1907 9.10751 82.81 9.77001C82.5663 10.2242 82.3943 10.7133 82.3 11.22C82.1712 12.1609 82.1177 13.1106 82.14 14.06V21.65H80.24V12.92C80.3635 11.4995 79.9771 10.0815 79.15 8.92001C78.7202 8.47449 78.1965 8.13027 77.6171 7.91232C77.0376 7.69438 76.4169 7.60819 75.8 7.66001C74.9743 7.64066 74.1566 7.82619 73.42 8.20001C72.7401 8.56006 72.1753 9.10412 71.79 9.77001C71.5372 10.2201 71.3646 10.7108 71.28 11.22C71.1559 12.1613 71.1058 13.1109 71.13 14.06V21.65H69.13V6.06001H71.13V7.83001C71.7001 7.15477 72.4189 6.62081 73.23 6.27001C74.1072 5.90599 75.0506 5.72888 76 5.75001C77.1238 5.73301 78.2351 5.98683 79.24 6.49001C80.1449 6.94014 80.9041 7.63694 81.43 8.50001V8.50001Z" fill="#1D1D1B"/>
<path d="M94.78 13.87C94.7621 12.7845 94.9606 11.7063 95.3641 10.6985C95.7676 9.69058 96.3679 8.77323 97.13 8.00001C97.8358 7.22595 98.6963 6.60877 99.6559 6.18844C100.615 5.76812 101.652 5.55402 102.7 5.56001C103.779 5.54744 104.85 5.75764 105.844 6.17747C106.839 6.5973 107.736 7.21774 108.48 8.00001C109.246 8.73866 109.854 9.6262 110.265 10.6081C110.676 11.59 110.882 12.6456 110.87 13.71C110.898 14.8154 110.705 15.9152 110.303 16.9453C109.902 17.9754 109.299 18.9153 108.53 19.71C107.813 20.4987 106.937 21.1265 105.96 21.5522C104.982 21.9779 103.926 22.1919 102.86 22.18C101.789 22.1986 100.726 21.9928 99.739 21.5761C98.7522 21.1593 97.8635 20.5407 97.13 19.76C96.3575 18.9903 95.7506 18.0707 95.3465 17.0578C94.9423 16.0449 94.7496 14.9601 94.78 13.87ZM96.88 13.87C96.8325 15.5401 97.4471 17.1613 98.59 18.38C99.1311 18.97 99.7919 19.4376 100.528 19.7514C101.265 20.0653 102.06 20.2183 102.86 20.2C103.651 20.2168 104.437 20.0629 105.163 19.7489C105.89 19.4348 106.54 18.9679 107.07 18.38C108.209 17.1476 108.82 15.5175 108.77 13.84C108.801 13.0067 108.665 12.1757 108.37 11.3959C108.074 10.6161 107.626 9.90344 107.05 9.30001C106.486 8.71465 105.806 8.25384 105.053 7.94727C104.301 7.6407 103.492 7.49515 102.68 7.52001C101.907 7.51452 101.142 7.67506 100.436 7.99077C99.7306 8.30649 99.101 8.77001 98.59 9.35001C97.4549 10.5655 96.841 12.1773 96.88 13.84V13.87Z" fill="#1D1D1B"/>
<path d="M112.35 6.06002H114.29V7.83002C114.871 7.15062 115.599 6.6135 116.42 6.26002C118.305 5.54058 120.396 5.58362 122.25 6.38002C123.111 6.7838 123.845 7.41694 124.37 8.21002C124.748 8.82328 125.009 9.50144 125.14 10.21C125.323 11.3101 125.4 12.4252 125.37 13.54V21.69H123.37V12.92C123.491 11.5056 123.12 10.0929 122.32 8.92002C121.892 8.48083 121.373 8.1405 120.799 7.92285C120.226 7.70521 119.612 7.61551 119 7.66002C118.171 7.64191 117.351 7.82733 116.61 8.20002C115.934 8.55863 115.375 9.1035 115 9.77003C114.744 10.2196 114.568 10.7102 114.48 11.22C114.356 12.1613 114.306 13.1109 114.33 14.06V21.65H112.39L112.35 6.06002Z" fill="#1D1D1B"/>
<path d="M141.08 8.52V1H143.08V21.65H141.08V19.29C140.374 20.147 139.481 20.8311 138.47 21.29C137.437 21.7719 136.31 22.0211 135.17 22.02C134.11 22.0397 133.057 21.8383 132.079 21.4285C131.101 21.0187 130.219 20.4096 129.49 19.64C128.735 18.87 128.141 17.9566 127.744 16.9536C127.348 15.9506 127.156 14.8783 127.18 13.8C127.155 12.7332 127.344 11.6723 127.736 10.6796C128.127 9.68696 128.714 8.78268 129.46 8.02C130.197 7.25434 131.085 6.65077 132.068 6.24786C133.051 5.84494 134.108 5.65154 135.17 5.68C136.325 5.66526 137.47 5.90779 138.52 6.39C139.532 6.88372 140.41 7.6144 141.08 8.52V8.52ZM141.14 14.01C141.173 12.3192 140.537 10.6838 139.37 9.46C138.855 8.86778 138.219 8.3927 137.505 8.06671C136.791 7.74071 136.015 7.57135 135.23 7.57C134.438 7.5593 133.653 7.71386 132.925 8.0238C132.197 8.33374 131.541 8.79224 131 9.37C130.426 9.94315 129.974 10.6268 129.671 11.3796C129.369 12.1325 129.222 12.9389 129.24 13.75C129.215 14.5935 129.357 15.4337 129.659 16.2216C129.962 17.0096 130.417 17.7296 131 18.34C131.54 18.9342 132.2 19.4072 132.936 19.7278C133.672 20.0484 134.467 20.2093 135.27 20.2C136.043 20.1952 136.806 20.027 137.509 19.7064C138.212 19.3858 138.84 18.9202 139.35 18.34C139.925 17.7741 140.38 17.098 140.687 16.3523C140.995 15.6066 141.149 14.8066 141.14 14V14.01Z" fill="#1D1D1B"/>
<path d="M166.83 3.13001C166.828 2.71004 166.95 2.29887 167.182 1.94821C167.413 1.59754 167.742 1.32303 168.129 1.15918C168.516 0.995329 168.942 0.949451 169.355 1.02732C169.768 1.10518 170.148 1.30331 170.448 1.5968C170.749 1.89029 170.956 2.26604 171.043 2.67681C171.131 3.08758 171.095 3.51504 170.94 3.90545C170.785 4.29587 170.518 4.63181 170.173 4.87104C169.828 5.11027 169.42 5.24212 169 5.25001C168.718 5.25532 168.437 5.20447 168.175 5.10043C167.913 4.99639 167.673 4.84123 167.472 4.64398C167.27 4.44672 167.109 4.21129 166.999 3.95139C166.889 3.69148 166.831 3.41228 166.83 3.13001V3.13001ZM170.77 3.13001C170.77 2.89101 170.723 2.65434 170.631 2.43353C170.54 2.21272 170.406 2.01208 170.237 1.84308C170.068 1.67407 169.867 1.54001 169.646 1.44855C169.426 1.35709 169.189 1.31001 168.95 1.31001C168.711 1.31001 168.474 1.35709 168.254 1.44855C168.033 1.54001 167.832 1.67407 167.663 1.84308C167.494 2.01208 167.36 2.21272 167.269 2.43353C167.177 2.65434 167.13 2.89101 167.13 3.13001C167.13 3.36902 167.177 3.60568 167.269 3.8265C167.36 4.04731 167.494 4.24794 167.663 4.41695C167.832 4.58595 168.033 4.72001 168.254 4.81147C168.474 4.90294 168.711 4.95001 168.95 4.95001C169.189 4.95001 169.426 4.90294 169.646 4.81147C169.867 4.72001 170.068 4.58595 170.237 4.41695C170.406 4.24794 170.54 4.04731 170.631 3.8265C170.723 3.60568 170.77 3.36902 170.77 3.13001V3.13001ZM169.65 4.36001C169.6 4.23287 169.576 4.09673 169.58 3.96001C169.58 3.44001 169.44 3.33001 168.96 3.33001H168.35V4.33001H168.05V1.93001H169.11C169.59 1.93001 169.93 2.15001 169.93 2.59001C169.942 2.72678 169.903 2.86315 169.819 2.97233C169.736 3.08151 169.615 3.15559 169.48 3.18001V3.18001C169.77 3.27001 169.88 3.41001 169.88 3.88001C169.865 4.04097 169.893 4.20296 169.96 4.35001L169.65 4.36001ZM169 3.05001C169.38 3.05001 169.61 2.91001 169.61 2.61001C169.61 2.31001 169.42 2.21001 169.03 2.21001H168.34V3.05001H169Z" fill="#1D1D1B"/>
</svg>
